<svg width="20" height="14" viewBox="0 0 20 14" fill="none" xmlns="http://www.w3.org/2000/svg">
<path d="M15 14H4C1.794 14 0 12.206 0 10C0.00103173 9.11322 0.296203 8.25183 0.83927 7.55079C1.38234 6.84974 2.14262 6.34864 3.001 6.12601L3 6.00001C3 2.69101 5.691 8.1926e-06 9 8.1926e-06C10.2425 -0.00204982 11.4547 0.383677 12.4675 1.1034C13.4803 1.82313 14.2433 2.84097 14.65 4.01501C17.592 3.76901 20 6.12801 20 9.00001C20 11.757 17.757 14 15 14ZM3.905 7.99401C2.897 8.00001 2 8.89701 2 10C2 11.103 2.897 12 4 12H15C16.654 12 18 10.654 18 9.00001C18 7.34601 16.654 6.00001 15 6.00001C14.757 6.00001 14.5 6.04101 14.19 6.13001L13.115 6.43701L12.929 5.33401C12.7762 4.40247 12.2971 3.55563 11.5773 2.94486C10.8575 2.33409 9.94399 1.99918 9 2.00001C8.40605 2.00058 7.81967 2.13328 7.28335 2.38849C6.74702 2.64371 6.2742 3.01504 5.89914 3.47559C5.52407 3.93614 5.25617 4.47436 5.11484 5.05125C4.97351 5.62814 4.96229 6.22925 5.082 6.81101L5.326 8.01001L3.905 7.99401Z" fill="white"/>
</svg>
