<svg width="263" height="319" viewBox="0 0 263 319" fill="none" xmlns="http://www.w3.org/2000/svg">
<path d="M0 180.667C0 143.848 29.8477 114 66.6667 114H120V167.333C120 204.152 90.1523 234 53.3333 234C23.8782 234 0 210.122 0 180.667Z" fill="#59C4E5"/>
<path d="M143 66.6667C143 29.8477 172.848 0 209.667 0H263V53.3333C263 90.1523 233.152 120 196.333 120C166.878 120 143 96.1218 143 66.6667Z" fill="#59C4E5"/>
<path d="M137 265.667C137 228.848 166.848 199 203.667 199H257V252.333C257 289.152 227.152 319 190.333 319C160.878 319 137 295.122 137 265.667Z" fill="#59C4E5"/>
</svg>
